<svg xmlns="http://www.w3.org/2000/svg" width="36" height="36" viewBox="0 0 36 36">
    <g data-name="icon_map/ 36">
        <path data-name="사각형 553" style="fill:none;opacity:.46" d="M0 0h36v36H0z"/>
        <path data-name="패스 23251" d="M1913.135 2137.686a.93.93 0 0 0-.411.1l-9.84 4.922a.383.383 0 0 1-.326.007l-11.106-4.936a.416.416 0 0 1-.067-.021.782.782 0 0 0-.1-.031 1.441 1.441 0 0 0-.123-.026 2.089 2.089 0 0 0-.231 0c-.013 0-.051.011-.088.021a.811.811 0 0 0-.118.036l-.08.023-11.645 5.179a.918.918 0 0 0-.545.838v28.57a.918.918 0 0 0 1.289.838l11.16-4.961a.378.378 0 0 1 .311 0l11.113 4.939a.4.4 0 0 1 .15.056.762.762 0 0 0 .613-.038.45.45 0 0 1 .112-.036l10.342-5.173a.912.912 0 0 0 .507-.821V2138.6a.919.919 0 0 0-.917-.914zm-22.994 28.643a.381.381 0 0 1-.226.349l-9.091 4.04a.366.366 0 0 1-.155.033.382.382 0 0 1-.381-.382v-25.727a.382.382 0 0 1 .226-.349l9.09-4.039a.378.378 0 0 1 .365.029.382.382 0 0 1 .172.32zm11.688 4.04a.379.379 0 0 1-.174.32.384.384 0 0 1-.208.062.36.36 0 0 1-.156-.034l-9.089-4.039a.382.382 0 0 1-.227-.349V2140.6a.382.382 0 0 1 .538-.349l9.089 4.039a.384.384 0 0 1 .227.349zm10.389-4a.379.379 0 0 1-.211.341l-7.792 3.9a.382.382 0 0 1-.552-.342V2144.6a.379.379 0 0 1 .21-.341l7.792-3.9a.38.38 0 0 1 .371.016.386.386 0 0 1 .182.325z" transform="translate(-1878.454 -2137.686)" style="fill:#666"/>
    </g>
</svg>
