<svg xmlns="http://www.w3.org/2000/svg" width="36" height="36" viewBox="0 0 36 36">
    <g data-name="btn_write/ 36">
        <path data-name="사각형 553" style="fill:none;opacity:.46" d="M0 0h36v36H0z"/>
        <g data-name="그룹 1841">
            <path data-name="패스 8266" d="M4772.155 6501.878a.9.9 0 0 0-.9.9v7.96a2.692 2.692 0 0 1-2.69 2.69h-25.157a2.693 2.693 0 0 1-2.69-2.69v-23.364a2.693 2.693 0 0 1 2.69-2.69h7.961a.9.9 0 0 0 0-1.793h-7.961a4.488 4.488 0 0 0-4.483 4.483v23.364a4.487 4.487 0 0 0 4.483 4.483h25.157a4.486 4.486 0 0 0 4.483-4.483v-7.96a.9.9 0 0 0-.9-.9zm0 0" transform="translate(-4738.929 -6479.399)" style="fill:#fff"/>
            <path data-name="패스 8267" d="M4774.314 6480a4.036 4.036 0 0 0-5.706 0l-16 16a.917.917 0 0 0-.23.394l-2.1 7.595a.9.9 0 0 0 1.1 1.1l7.595-2.1a.9.9 0 0 0 .395-.23l16-16a4.039 4.039 0 0 0 0-5.706zm-19.748 16.579 13.091-13.092 4.221 4.222-13.091 13.092zm-.844 1.692 3.373 3.374-4.665 1.292zm20.376-12.78-.951.95-4.222-4.222.952-.952a2.244 2.244 0 0 1 3.17 0l1.052 1.053a2.246 2.246 0 0 1 0 3.171zm0 0" transform="translate(-4740.546 -6478.817)" style="fill:#fff"/>
        </g>
    </g>
</svg>
