<svg xmlns="http://www.w3.org/2000/svg" width="42" height="42.001" viewBox="0 0 42 42.001">
    <g data-name="btn_cart/ 42">
        <g data-name="그룹 5295">
            <path data-name="사각형 203" style="fill:none" d="M0 0h42v42H0z"/>
            <g data-name="그룹 2558">
                <path data-name="패스 1490" d="M4327.193 6108.925a1.317 1.317 0 0 0-1.315 1.315v6.69a1.315 1.315 0 1 0 2.631 0v-6.69a1.318 1.318 0 0 0-1.316-1.315z" transform="translate(-4312.883 -6082.884)" style="fill:#f70"/>
                <path data-name="패스 1491" d="M4333.883 6108.925a1.317 1.317 0 0 0-1.315 1.315v6.69a1.316 1.316 0 1 0 2.631 0v-6.69a1.317 1.317 0 0 0-1.316-1.315z" transform="translate(-4312.883 -6082.884)" style="fill:#f70"/>
                <path data-name="패스 1492" d="M4340.573 6108.925a1.317 1.317 0 0 0-1.315 1.315v6.69a1.316 1.316 0 1 0 2.631 0v-6.69a1.317 1.317 0 0 0-1.316-1.315z" transform="translate(-4312.883 -6082.884)" style="fill:#f70"/>
                <path data-name="패스 1493" d="M4353.618 6095.6h-6.076l-.046-.063-8.915-12.132a1.264 1.264 0 0 0-2.037 1.5l7.859 10.7h-20.978l7.859-10.7a1.263 1.263 0 0 0-.27-1.768 1.267 1.267 0 0 0-1.767.27l-8.961 12.2h-6.138a1.266 1.266 0 0 0-1.265 1.264v6.69a1.267 1.267 0 0 0 1.265 1.265h1.49l1.742 14.535a6.287 6.287 0 0 0 6.238 5.535h20.665a6.278 6.278 0 0 0 6.243-5.581l1.627-14.489h1.465a1.266 1.266 0 0 0 1.265-1.265v-6.69a1.265 1.265 0 0 0-1.265-1.271zm-1.264 6.689h-1.331a1.262 1.262 0 0 0-1.256 1.124l-1.754 15.612a3.752 3.752 0 0 1-3.73 3.334h-20.665a3.753 3.753 0 0 1-3.726-3.306l-1.706-14.234h26.151a1.265 1.265 0 0 0 0-2.53h-28.924v-4.16h36.941z" transform="translate(-4312.883 -6082.884)" style="fill:#f70"/>
            </g>
        </g>
    </g>
</svg>
